<?xml version="1.0" encoding="utf-8"?>
<!-- Generator: Adobe Illustrator 27.3.1, SVG Export Plug-In . SVG Version: 6.00 Build 0)  -->
<svg version="1.1"
	 id="Logo" xmlns:svg="http://www.w3.org/2000/svg" xmlns:inkscape="http://www.inkscape.org/namespaces/inkscape" xmlns:sodipodi="http://sodipodi.sourceforge.net/DTD/sodipodi-0.dtd" inkscape:version="1.3.2 (091e20e, 2023-11-25, custom)"
	 xmlns="http://www.w3.org/2000/svg" xmlns:xlink="http://www.w3.org/1999/xlink" x="0px" y="0px" viewBox="0 0 500 250"
	 style="enable-background:new 0 0 500 250;" xml:space="preserve">
<style type="text/css">
	.st0{fill:#0a0c0f;}
	.st1{opacity:0.2;fill:#E73845;enable-background:new    ;}
	.st2{fill:#E73845;}
</style>
<sodipodi:namedview  bordercolor="#ffffff" borderopacity="1" id="namedview1" inkscape:current-layer="svg1" inkscape:cx="525.80913" inkscape:cy="271.75657" inkscape:deskcolor="#505050" inkscape:pagecheckerboard="1" inkscape:pageopacity="0" inkscape:showpageshadow="0" inkscape:window-height="1377" inkscape:window-maximized="1" inkscape:window-width="2560" inkscape:window-x="-8" inkscape:window-y="-8" inkscape:zoom="0.56484375" pagecolor="#505050">
	</sodipodi:namedview>
<g id="Logo_00000129169007756529817580000003769738251062031778_">
	<rect class="st0" width="500" height="250"/>
	<g>
		<path class="st1" d="M313.09,140.45h3.3v3.3h-3.3V140.45z M325.93,129.49c-0.81-0.02-1.61,0.22-2.28,0.68
			c-0.53,0.39-0.98,0.88-1.32,1.45v-1.92h-3.24v14.06h3.24v-8.69l0,0c-0.04-0.67,0.19-1.33,0.65-1.82c0.5-0.45,1.17-0.69,1.84-0.64
			c0.71-0.05,1.4,0.2,1.92,0.69c0.48,0.53,0.72,1.24,0.68,1.95v8.52h3.24v-8.53c0-1.82-0.41-3.23-1.24-4.23
			S327.42,129.49,325.93,129.49z M344.08,133c0.48,1.32,0.7,2.71,0.67,4.12v0.92h-8.76c0,0.11-0.01,0.21,0,0.32
			c0.17,1.65,1.65,2.85,3.31,2.68c0.54,0,1.08-0.1,1.58-0.3c0.51-0.2,0.99-0.49,1.4-0.85l2.11,1.98c-0.7,0.66-1.51,1.19-2.4,1.55
			c-0.85,0.36-1.76,0.54-2.69,0.55l0,0c-1.18,0.03-2.34-0.22-3.4-0.73c-0.92-0.47-1.68-1.22-2.15-2.15
			c-0.52-1.06-0.78-2.24-0.74-3.42v-1.58c-0.03-1.23,0.21-2.44,0.71-3.56c0.44-0.95,1.16-1.73,2.07-2.25c1-0.54,2.13-0.8,3.27-0.77
			c1.1-0.03,2.17,0.28,3.08,0.9C343.02,131.05,343.7,131.96,344.08,133z M341.74,135.67l-0.01-0.15c-0.03-0.83-0.32-1.63-0.83-2.29
			c-0.46-0.54-1.14-0.84-1.86-0.81c-0.85-0.05-1.68,0.28-2.26,0.91c-0.52,0.67-0.79,1.49-0.79,2.34H341.74z M352.63,132.52v-2.83
			h-1.92v-4.09h-3.24v4.09h-1.45v2.83h1.45v7.57c0,1.23,0.28,2.16,0.83,2.78c0.55,0.63,1.42,0.94,2.6,0.94h1.73v-3.1h-1.12
			c-0.23,0.01-0.46-0.09-0.6-0.28c-0.15-0.24-0.22-0.51-0.2-0.79v-7.12H352.63z"/>
		<path class="st2" d="M492.63,96.99c0,1.95-0.07,3.89-0.2,5.81c-9.58-13.04-23.53-22.21-39.31-25.82
			c-14.72-12.82-27.43-27.78-37.71-44.38c-4.32,0.71-8.69,1.07-13.07,1.07c-5.2,0-10.38-0.5-15.48-1.51
			c-0.29,5.65-1.15,11.26-2.58,16.74c32,5.09,59.17,26.22,71.97,55.99c0.01,0.49,0.02,0.99,0.02,1.48
			c0.01,10.25-1.66,20.43-4.95,30.14c-0.03-0.01-0.05-0.02-0.09-0.04c-4.78,14.43-13.19,27.38-24.43,37.62
			c-0.86,1.21-1.74,2.42-2.64,3.61c-21.63,38.26-62.67,64.1-109.76,64.1c-16.24,0.02-32.32-3.11-47.37-9.22
			c25.45-6.09,49.65-16.52,71.56-30.82c-1.2-1.36-2.38-2.74-3.53-4.15c-26.17,9.72-55.26,7.72-79.85-5.5
			c29.87-1.97,58.87-10.92,84.64-26.15c17.77-14.22,37.97-25.12,59.61-32.16c1.85-6.95,5.69-13.21,11.05-18.01
			c-20.42-12.61-39.11-27.81-55.62-45.22c-4.05,1.72-8.16,3.35-12.31,4.88c-4.34-8.32-12.95-13.54-22.34-13.54
			c-13.92,0-25.2,11.28-25.2,25.2c0,0.32,0.01,0.63,0.02,0.95c-14.82,2.49-29.82,3.75-44.85,3.74c-15.23,0-30.43-1.28-45.44-3.84
			c0.01-0.28,0.02-0.56,0.02-0.85c0-9.31-5.14-17.86-13.36-22.24c-12.28-6.54-27.55-1.88-34.09,10.4c-4.1-1.52-8.16-3.13-12.16-4.85
			c-16.56,17.51-35.32,32.78-55.83,45.44c5.36,4.8,9.2,11.05,11.05,18c21.64,7.04,41.83,17.93,59.6,32.14
			c25.77,15.22,54.75,24.17,84.61,26.14c-24.58,13.21-53.66,15.21-79.82,5.49c-1.15,1.41-2.33,2.79-3.53,4.15
			c21.9,14.3,46.1,24.72,71.54,30.81c-15.04,6.1-31.12,9.23-47.35,9.21c-47.07,0-88.1-25.82-109.73-64.07
			c-0.9-1.19-1.77-2.39-2.64-3.6c-11.23-10.23-19.64-23.17-24.42-37.59l-0.09,0.04c-3.29-9.7-4.96-19.88-4.95-30.13
			c0-0.5,0.01-0.99,0.02-1.48c12.9-29.98,40.36-51.18,72.63-56.06c-1.61-5.42-2.69-10.99-3.24-16.62c-5.11,1.01-10.3,1.51-15.5,1.51
			c-4.38,0-8.75-0.36-13.06-1.07c-10.27,16.59-22.98,31.55-37.7,44.36c-15.77,3.61-29.71,12.77-39.29,25.8
			c-0.12-1.92-0.2-3.86-0.2-5.81C7.37,48.21,46.98,8.6,95.85,8.6c0.06,0,0.12,0,0.18,0c6-2.03,12.18-3.48,18.46-4.34
			c0.23-1.43,0.48-2.85,0.74-4.26h269.5c0.24,1.37,0.49,2.74,0.71,4.12c6.29,0.85,12.49,2.31,18.5,4.34c0.06,0,0.12,0,0.18,0
			C453,8.46,492.63,48.1,492.63,96.99z M320,106.45c11.16,0,20.22-9.05,20.22-20.21c0-11.16-9.05-20.21-20.21-20.22
			c-11.16,0-20.22,9.05-20.22,20.21C299.78,97.4,308.83,106.45,320,106.45z M200.16,86.23c0-11.17-9.05-20.22-20.22-20.22
			c-2.65,0-5.28,0.52-7.74,1.54c-7.55,3.13-12.48,10.5-12.48,18.68c0,11.17,9.05,20.22,20.22,20.22
			C191.11,106.45,200.16,97.4,200.16,86.23z M174,117.03v26.33h6.32v-15.8c0-1.59,0.42-2.84,1.25-3.74c0.84-0.9,2.02-1.36,3.54-1.36
			c0.7-0.01,1.4,0.1,2.05,0.34c0.57,0.21,1.08,0.56,1.5,1l3.7-5.1c-0.69-0.68-1.52-1.2-2.44-1.53c-1-0.36-2.06-0.53-3.12-0.52
			c-1.45-0.01-2.87,0.45-4.05,1.31c-0.98,0.72-1.81,1.63-2.45,2.67v-3.59H174z M209.58,143.36v-2.33c-0.27,0.39-0.59,0.75-0.98,1.04
			c-0.78,0.59-1.66,1.01-2.6,1.26c-1.08,0.29-2.2,0.43-3.32,0.42l0,0c-3.03,0-5.29-0.67-6.8-2.02c-1.51-1.34-2.26-3.39-2.26-6.13
			c0-2.6,0.76-4.56,2.28-5.86c1.52-1.3,3.81-1.95,6.85-1.95h6.82v-1.12c0-1.47-0.43-2.61-1.31-3.42s-2.1-1.22-3.69-1.22
			c-1.02,0-2.03,0.16-2.99,0.48c-0.95,0.3-1.84,0.76-2.64,1.34l-4.03-3.4c1.1-1.25,2.5-2.21,4.06-2.8c1.78-0.69,3.67-1.03,5.58-1
			c1.97-0.05,3.93,0.34,5.73,1.15c1.53,0.71,2.8,1.88,3.64,3.35c0.88,1.62,1.31,3.45,1.26,5.29v16.92H209.58z M209.58,136.23v-3.73
			h-6.8c-1.2,0-2.1,0.25-2.7,0.76s-0.9,1.29-0.9,2.33c-0.07,0.96,0.38,1.89,1.17,2.45c0.78,0.53,1.95,0.8,3.53,0.8
			c1.93,0,3.36-0.21,4.3-0.63C209.11,137.79,209.58,137.13,209.58,136.23L209.58,136.23z M237.65,142.45
			c-1.46,0.89-3.14,1.34-4.84,1.29c-1.47,0.04-2.91-0.38-4.13-1.18c-0.95-0.65-1.71-1.54-2.23-2.56v3.36h-6.06v-36.88h6.06v14
			c0.63-1.01,1.45-1.89,2.42-2.58c1.2-0.83,2.62-1.27,4.07-1.26c1.69-0.05,3.35,0.4,4.78,1.29c1.38,0.92,2.43,2.25,3.03,3.79
			c0.74,1.92,1.09,3.97,1.04,6.02v4.97c0.05,2.03-0.31,4.06-1.05,5.95C240.11,140.22,239.04,141.54,237.65,142.45z M235.72,127.78
			c0-1.78-0.41-3.15-1.24-4.12c-0.83-0.97-2-1.46-3.5-1.46c-0.85-0.02-1.7,0.16-2.46,0.55c-0.67,0.36-1.21,0.92-1.55,1.61
			c-0.37,0.8-0.56,1.68-0.53,2.56l0,0v6.56l0-0.01c-0.03,0.88,0.16,1.75,0.53,2.55c0.34,0.68,0.88,1.25,1.55,1.61
			c0.76,0.39,1.61,0.58,2.46,0.56c1.51,0,2.67-0.47,3.5-1.42c0.83-0.95,1.24-2.29,1.24-4.03V127.78z M232.8,143.74
			C232.8,143.74,232.8,143.74,232.8,143.74C232.8,143.74,232.8,143.74,232.8,143.74L232.8,143.74z M258.95,143.74
			c-1.47,0.04-2.91-0.38-4.13-1.18c-0.95-0.65-1.71-1.53-2.23-2.55v3.35h-6.06v-36.88h6.06v14c0.63-1.01,1.45-1.88,2.42-2.57
			c1.2-0.83,2.62-1.27,4.07-1.26c1.69-0.05,3.35,0.4,4.78,1.29c1.38,0.92,2.43,2.25,3.03,3.79c0.74,1.92,1.09,3.97,1.04,6.02v4.97
			c0.05,2.03-0.31,4.06-1.05,5.95c-0.61,1.54-1.69,2.86-3.08,3.77C262.34,143.34,260.65,143.79,258.95,143.74L258.95,143.74z
			 M257.12,138.18c1.51,0,2.67-0.47,3.5-1.42s1.24-2.29,1.24-4.03v-4.95c0-1.78-0.41-3.15-1.24-4.12c-0.83-0.97-2-1.46-3.5-1.46
			c-0.85-0.02-1.7,0.16-2.46,0.55c-0.67,0.36-1.21,0.92-1.55,1.61c-0.37,0.79-0.55,1.65-0.53,2.51v6.65
			c-0.02,0.86,0.16,1.72,0.53,2.5c0.34,0.68,0.88,1.25,1.55,1.61C255.42,138.02,256.26,138.21,257.12,138.18z M293.9,132.66h-16.37
			c0.1,1.69,0.61,3.04,1.58,3.99c1.08,1.07,2.6,1.61,4.57,1.61c1.01,0,2.01-0.2,2.96-0.57c0.96-0.37,1.85-0.91,2.63-1.59l3.96,3.7
			c-1.31,1.24-2.84,2.22-4.5,2.9c-1.59,0.67-3.31,1.02-5.04,1.03c-2.2,0.06-4.39-0.41-6.37-1.37c-1.73-0.89-3.14-2.29-4.03-4.02
			c-0.93-1.77-1.4-3.9-1.4-6.41v-2.97c0-2.6,0.44-4.83,1.33-6.67c0.82-1.77,2.18-3.24,3.88-4.21c1.88-1.01,3.99-1.51,6.13-1.45
			c2.05-0.06,4.07,0.53,5.77,1.69c1.68,1.23,2.95,2.93,3.65,4.88c0.84,2.13,1.26,4.7,1.26,7.71V132.66z M288.27,128.22l-0.03-0.28
			c-0.17-1.84-0.68-3.27-1.55-4.29c-0.86-1.02-2.15-1.58-3.48-1.52c-1.83,0-3.24,0.57-4.24,1.71c-0.92,1.05-1.39,2.52-1.47,4.38
			H288.27z M283.68,143.74C283.68,143.74,283.68,143.74,283.68,143.74C283.68,143.74,283.68,143.74,283.68,143.74L283.68,143.74z
			 M298.16,143.36h6.32v-15.78l0,0c0-1.61,0.42-2.86,1.26-3.77c0.84-0.9,2.02-1.36,3.54-1.36c0.7-0.01,1.4,0.1,2.05,0.34
			c0.57,0.21,1.08,0.56,1.5,1l3.7-5.1c-0.69-0.68-1.52-1.2-2.44-1.53c-1-0.36-2.06-0.53-3.12-0.52c-1.45-0.01-2.87,0.45-4.05,1.31
			c-0.99,0.72-1.81,1.63-2.45,2.67v-3.6h-6.32V143.36z M312.82,123.8L312.82,123.8L312.82,123.8L312.82,123.8z M152.96,106.08h-5.04
			c-0.37,0-0.55,0.18-0.55,0.55v36.18c0,0.37,0.18,0.55,0.55,0.55h5.04c0.36,0,0.55-0.18,0.55-0.55v-6.96l3.56-4.11l6.69,11.07
			c0.22,0.37,0.51,0.55,0.88,0.55h5.76c0.18,0,0.29-0.06,0.33-0.19c0.04-0.13,0.02-0.25-0.05-0.36l-9.65-15.68l8.39-9.65
			c0.11-0.11,0.15-0.23,0.11-0.36c-0.04-0.13-0.15-0.19-0.33-0.19h-5.59c-0.37,0-0.71,0.18-1.04,0.55l-9.05,10.64v-21.49
			C153.51,106.26,153.33,106.08,152.96,106.08z"/>
	</g>
</g>
</svg>
